<svg xmlns="http://www.w3.org/2000/svg" xmlns:xlink="http://www.w3.org/1999/xlink" width="200" height="200" viewBox="0 0 200 200">
  <defs>
    <clipPath id="clip-path">
      <ellipse id="Ellipse_31" data-name="Ellipse 31" cx="87" cy="87.5" rx="87" ry="87.5" transform="translate(101 127)" fill="#dbe3f5"/>
    </clipPath>
  </defs>
  <g id="img" transform="translate(-88 -114)">
    <ellipse id="Ellipse_29" data-name="Ellipse 29" cx="87" cy="87.5" rx="87" ry="87.5" transform="translate(101 127)" fill="#dbe3f5"/>
    <g id="Mask_Group" data-name="Mask Group">
      <g id="Ellipse_31-2" data-name="Ellipse 31" clip-path="url(#clip-path)">
        <g id="Group_81" data-name="Group 81">
          <path id="Union" d="M177.356,306.268a3.5,3.5,0,0,1,1.281-4.781l37.355-21.567a3.5,3.5,0,0,1,3.5,6.062L182.137,307.55a3.5,3.5,0,0,1-4.781-1.282Zm-13.451-3.781a3.5,3.5,0,0,1,1.281-4.782l22.423-12.946a3.5,3.5,0,1,1,3.5,6.062l-22.423,12.946a3.5,3.5,0,0,1-4.781-1.281Zm41.949-1.126a3.5,3.5,0,0,1,1.281-4.781l18.187-10.5a3.5,3.5,0,0,1,3.5,6.062l-18.186,10.5a3.5,3.5,0,0,1-4.781-1.282Zm-55.076-2.842a3.5,3.5,0,0,1,1.281-4.782L185.207,274.6a3.5,3.5,0,0,1,3.5,6.062L155.56,299.8a3.5,3.5,0,0,1-4.781-1.281Zm-11.027-5.181a3.5,3.5,0,0,1,1.281-4.781l6.266-3.617A3.5,3.5,0,1,1,150.8,291l-6.265,3.617a3.5,3.5,0,0,1-4.781-1.282Zm-7.8-7.043a3.5,3.5,0,0,1,1.281-4.781l39.38-22.735a3.5,3.5,0,0,1,3.5,6.062l-39.38,22.736a3.5,3.5,0,0,1-4.781-1.282Zm101.618-.933a3.5,3.5,0,0,1,1.281-4.782l27.611-15.941a3.5,3.5,0,0,1,3.5,6.062l-27.611,15.941a3.5,3.5,0,0,1-4.781-1.281Zm-78.024-1.141a3.5,3.5,0,0,1,1.281-4.781l77.943-45a3.5,3.5,0,0,1,3.5,6.062l-77.943,45a3.5,3.5,0,0,1-4.781-1.282Zm40.311-.18a3.5,3.5,0,0,1,1.281-4.781l30.311-17.5a3.5,3.5,0,0,1,3.5,6.062l-30.311,17.5a3.5,3.5,0,0,1-4.781-1.282Zm-74.56-3.141a3.5,3.5,0,0,1,1.281-4.781l13.856-8a3.5,3.5,0,1,1,3.5,6.062l-13.856,8a3.5,3.5,0,0,1-4.781-1.282Zm102.942-1.7a3.5,3.5,0,0,1,1.282-4.781l31.177-18a3.5,3.5,0,1,1,3.5,6.061l-31.177,18a3.5,3.5,0,0,1-4.781-1.281Zm-30.785-5.321a3.5,3.5,0,0,1,1.281-4.781l5.2-3a3.5,3.5,0,0,1,3.5,6.062l-5.2,3a3.5,3.5,0,0,1-4.781-1.282Zm-77.158-1.641a3.5,3.5,0,0,1,1.282-4.781l45.033-26a3.5,3.5,0,0,1,3.5,6.062l-45.033,26a3.5,3.5,0,0,1-4.782-1.281Zm28.383-4.84a3.5,3.5,0,0,1,1.281-4.781l45.033-26a3.5,3.5,0,0,1,3.5,6.062l-45.033,26a3.5,3.5,0,0,1-4.781-1.282Zm63.5-2.019a3.5,3.5,0,0,1,1.282-4.781l25.115-14.5a3.5,3.5,0,1,1,3.5,6.061l-25.115,14.5a3.5,3.5,0,0,1-4.782-1.281Zm-96.88-1.8a3.5,3.5,0,0,1,1.281-4.782l45.033-26a3.5,3.5,0,0,1,3.5,6.062l-45.033,26a3.5,3.5,0,0,1-4.781-1.281Zm124.4-2.539a3.5,3.5,0,0,1,1.282-4.781l35.213-20.331a3.5,3.5,0,0,1,3.5,6.062l-35.213,20.33a3.5,3.5,0,0,1-4.782-1.281Zm-54.837-2.981a3.5,3.5,0,0,1,1.282-4.782l18.186-10.5a3.5,3.5,0,0,1,3.5,6.062l-18.187,10.5a3.5,3.5,0,0,1-4.781-1.281ZM264.94,255.7a3.5,3.5,0,0,1,1.281-4.782l3.849-2.222a3.5,3.5,0,0,1,3.5,6.062l-3.849,2.222a3.5,3.5,0,0,1-4.781-1.281Zm-158.646-.782a3.5,3.5,0,0,1,1.282-4.781l14.722-8.5a3.5,3.5,0,0,1,3.5,6.062l-14.723,8.5a3.5,3.5,0,0,1-4.781-1.282Zm-5-8.661a3.5,3.5,0,0,1,1.281-4.781l45.033-26a3.5,3.5,0,0,1,3.5,6.062l-45.033,26a3.5,3.5,0,0,1-4.781-1.282Zm141.521-.878A3.5,3.5,0,0,1,244.1,240.6l30.247-17.463a3.5,3.5,0,0,1,3.5,6.062L247.6,246.662a3.5,3.5,0,0,1-4.782-1.281Zm-34.249-3.321a3.5,3.5,0,0,1,1.282-4.781l64.9-37.471a3.5,3.5,0,0,1,3.5,6.062l-64.9,37.471a3.5,3.5,0,0,1-4.781-1.281Zm-78.024-1.14a3.5,3.5,0,0,1,1.282-4.782l77.942-45a3.5,3.5,0,0,1,3.5,6.062l-77.943,45a3.5,3.5,0,0,1-4.781-1.281Zm40.311-.18a3.5,3.5,0,0,1,1.281-4.781l30.311-17.5a3.5,3.5,0,0,1,3.5,6.062l-30.311,17.5a3.5,3.5,0,0,1-4.781-1.281ZM96.295,237.6a3.5,3.5,0,0,1,1.281-4.781l13.856-8a3.5,3.5,0,1,1,3.5,6.061l-13.856,8a3.5,3.5,0,0,1-4.781-1.281Zm102.942-1.7a3.5,3.5,0,0,1,1.282-4.781l31.177-18a3.5,3.5,0,0,1,3.5,6.062l-31.177,18a3.5,3.5,0,0,1-4.782-1.282Zm43.775-2.179a3.5,3.5,0,0,1,1.282-4.781l31.964-18.454a3.5,3.5,0,0,1,3.5,6.062L247.793,235a3.5,3.5,0,0,1-4.781-1.281Zm-77.158-1.641a3.5,3.5,0,0,1,1.282-4.782l47.632-27.5a3.5,3.5,0,0,1,3.5,6.062l-47.632,27.5a3.5,3.5,0,0,1-4.782-1.281Zm-69.311-6.171a3.5,3.5,0,0,1,1.281-4.781l39.785-22.971a3.5,3.5,0,0,1,3.5,6.062l-39.785,22.97a3.5,3.5,0,0,1-4.781-1.281Zm23.135-1.81a3.5,3.5,0,0,1,1.281-4.781l45.033-26a3.5,3.5,0,1,1,3.5,6.061l-45.033,26a3.5,3.5,0,0,1-4.781-1.281Zm91.014-6.359a3.5,3.5,0,0,1,1.281-4.781l59.755-34.5a3.5,3.5,0,1,1,3.5,6.062l-59.756,34.5a3.5,3.5,0,0,1-4.781-1.282Zm-54.838-2.981a3.5,3.5,0,0,1,1.282-4.781l18.186-10.5a3.5,3.5,0,0,1,3.5,6.062l-18.186,10.5a3.5,3.5,0,0,1-4.782-1.282ZM239.94,212.4a3.5,3.5,0,0,1,1.281-4.781l32.909-19a3.5,3.5,0,0,1,3.5,6.062l-32.909,19a3.5,3.5,0,0,1-4.781-1.282Zm-138.923-.621A3.5,3.5,0,0,1,102.3,207l47.631-27.5a3.5,3.5,0,1,1,3.5,6.062L105.8,213.06a3.5,3.5,0,0,1-4.781-1.281ZM94.9,203.763a3.5,3.5,0,0,1,1.282-4.782l1.115-.643a3.5,3.5,0,0,1,3.5,6.062l-1.116.644a3.5,3.5,0,0,1-4.781-1.281Zm128.11-4.683a3.5,3.5,0,0,1,1.281-4.781l5.2-3a3.5,3.5,0,0,1,3.5,6.062l-5.2,3a3.5,3.5,0,0,1-4.781-1.281Zm-39.445-.321a3.5,3.5,0,0,1,1.282-4.781L256.4,152.667a3.5,3.5,0,1,1,3.5,6.062L188.348,200.04a3.5,3.5,0,0,1-4.782-1.282Zm-78.024-1.14a3.5,3.5,0,0,1,1.282-4.781l77.942-45a3.5,3.5,0,1,1,3.5,6.062l-77.942,45a3.5,3.5,0,0,1-4.782-1.282Zm40.311-.18a3.5,3.5,0,0,1,1.282-4.781l30.31-17.5a3.5,3.5,0,1,1,3.5,6.061l-30.31,17.5a3.5,3.5,0,0,1-4.782-1.282Zm28.383-4.839a3.5,3.5,0,0,1,1.281-4.781l31.177-18a3.5,3.5,0,0,1,3.5,6.062l-31.177,18a3.5,3.5,0,0,1-4.781-1.281Zm63.5-2.02a3.5,3.5,0,0,1,1.282-4.781l25.115-14.5a3.5,3.5,0,0,1,3.5,6.062l-25.115,14.5a3.5,3.5,0,0,1-4.782-1.282Zm-19.723-.16a3.5,3.5,0,0,1,1.282-4.781l45.033-26a3.5,3.5,0,0,1,3.5,6.062l-45.033,26a3.5,3.5,0,0,1-4.782-1.282ZM99.1,189.791a3.5,3.5,0,0,1,1.281-4.782l22.227-12.832a3.5,3.5,0,1,1,3.5,6.062l-22.227,12.833a3.5,3.5,0,0,1-4.781-1.281ZM94.677,180.8a3.5,3.5,0,0,1,1.281-4.781l45.033-26a3.5,3.5,0,1,1,3.5,6.062l-45.033,26a3.5,3.5,0,0,1-4.781-1.282Zm63.5-2.019A3.5,3.5,0,0,1,159.456,174l25.115-14.5a3.5,3.5,0,1,1,3.5,6.062l-25.114,14.5a3.5,3.5,0,0,1-4.781-1.281Zm27.517-4.34a3.5,3.5,0,0,1,1.281-4.781l51.579-29.779a3.5,3.5,0,1,1,3.5,6.062L190.472,175.72a3.5,3.5,0,0,1-4.781-1.281Zm-54.837-2.981a3.5,3.5,0,0,1,1.281-4.782l18.186-10.5a3.5,3.5,0,1,1,3.5,6.062l-18.186,10.5a3.5,3.5,0,0,1-4.781-1.281ZM214.94,169.1a3.5,3.5,0,0,1,1.282-4.782l31.785-18.351a3.5,3.5,0,1,1,3.5,6.062L219.722,170.38a3.5,3.5,0,0,1-4.782-1.281Zm-22.124-10.32A3.5,3.5,0,0,1,194.1,154l35.923-20.74a3.5,3.5,0,1,1,3.5,6.062L197.6,160.06a3.5,3.5,0,0,1-4.781-1.281Zm-34.249-3.321a3.5,3.5,0,0,1,1.281-4.781l46.71-26.969a3.5,3.5,0,1,1,3.5,6.062l-46.71,26.968a3.5,3.5,0,0,1-4.781-1.281Zm-37.714-1.32a3.5,3.5,0,0,1,1.282-4.781l30.311-17.5a3.5,3.5,0,0,1,3.5,6.062l-30.311,17.5a3.5,3.5,0,0,1-4.782-1.281Zm28.383-4.84a3.5,3.5,0,0,1,1.281-4.781l31.177-18a3.5,3.5,0,1,1,3.5,6.062l-31.177,18a3.5,3.5,0,0,1-4.781-1.282Zm43.775-2.179a3.5,3.5,0,0,1,1.281-4.781l25.082-14.482a3.5,3.5,0,1,1,3.5,6.062L197.793,148.4a3.5,3.5,0,0,1-4.781-1.281Zm-32.321-15.981a3.5,3.5,0,0,1,1.281-4.781l7.768-4.485a3.5,3.5,0,1,1,3.5,6.062l-7.768,4.485a3.5,3.5,0,0,1-4.781-1.282Zm29.249-5.34a3.5,3.5,0,0,1,1.281-4.781l4.448-2.568a3.5,3.5,0,1,1,3.5,6.062l-4.447,2.568a3.5,3.5,0,0,1-4.781-1.282Z" fill="#fff"/>
        </g>
      </g>
    </g>
    <g id="fluent:ticket-diagonal-28-regular" transform="translate(148 174)">
      <g id="Group">
        <path id="Vector" d="M44.056,5.288a3.034,3.034,0,0,0-4.4-.114L5.179,39.659a3.037,3.037,0,0,0,.086,4.374l3.929,3.634a.979.979,0,0,0,.666.217,3.325,3.325,0,0,0,1.354-.271A9.049,9.049,0,0,1,23.242,58.739a3.38,3.38,0,0,0-.166,1.374.986.986,0,0,0,.271.646l2.914,2.7a3.034,3.034,0,0,0,4.186-.063L63.385,31.045a3.037,3.037,0,0,0,.129-4.2l-3.071-3.406a1.015,1.015,0,0,0-.623-.274,3.311,3.311,0,0,0-1.331.12,9.055,9.055,0,0,1-10.86-12.037,3.353,3.353,0,0,0,.257-1.311.971.971,0,0,0-.211-.643l-3.611-4ZM36.628,2.145a7.32,7.32,0,0,1,10.611.271l3.614,4c1.811,2.009,1.423,4.717.76,6.4a4.763,4.763,0,0,0,5.717,6.334c1.74-.486,4.474-.6,6.289,1.411l3.071,3.406A7.323,7.323,0,0,1,66.385,34.1L33.448,66.448a7.32,7.32,0,0,1-10.1.151l-2.914-2.7c-2.04-1.886-1.837-4.706-1.277-6.463a4.763,4.763,0,0,0-6.331-5.857c-1.711.694-4.506,1.114-6.543-.771L2.351,47.179a7.323,7.323,0,0,1-.206-10.554L36.631,2.148Z" transform="translate(5.858 5.91)"/>
        <path id="_" data-name="%" d="M2.916,7.83A2.618,2.618,0,0,1,.774,6.858,4.738,4.738,0,0,1,0,3.906,4.61,4.61,0,0,1,.774.972,2.618,2.618,0,0,1,2.916,0,2.567,2.567,0,0,1,5.04.972a4.61,4.61,0,0,1,.774,2.934A4.738,4.738,0,0,1,5.04,6.858,2.567,2.567,0,0,1,2.916,7.83Zm0-1.242a1.052,1.052,0,0,0,.99-.63A4.773,4.773,0,0,0,4.23,3.906a4.716,4.716,0,0,0-.324-2.034,1.052,1.052,0,0,0-.99-.63,1.052,1.052,0,0,0-.99.63A4.716,4.716,0,0,0,1.6,3.906a4.773,4.773,0,0,0,.324,2.052A1.052,1.052,0,0,0,2.916,6.588Zm-.27,6.3L10.08.072h1.728L4.41,12.888Zm8.892.072A2.618,2.618,0,0,1,9.4,11.988a4.738,4.738,0,0,1-.774-2.952A4.61,4.61,0,0,1,9.4,6.1a2.618,2.618,0,0,1,2.142-.972,2.567,2.567,0,0,1,2.124.972,4.61,4.61,0,0,1,.774,2.934,4.738,4.738,0,0,1-.774,2.952A2.567,2.567,0,0,1,11.538,12.96Zm0-1.242a1.052,1.052,0,0,0,.99-.63,4.773,4.773,0,0,0,.324-2.052A4.716,4.716,0,0,0,12.528,7a1.093,1.093,0,0,0-1.98,0,4.716,4.716,0,0,0-.324,2.034,4.773,4.773,0,0,0,.324,2.052A1.052,1.052,0,0,0,11.538,11.718Z" transform="translate(32.77 34.112)"/>
      </g>
    </g>
    <g id="Ellipse_30" data-name="Ellipse 30" transform="translate(88 114)" fill="none" stroke="#dbe3f5" stroke-width="4">
      <circle cx="100" cy="100" r="100" stroke="none"/>
      <circle cx="100" cy="100" r="98" fill="none"/>
    </g>
  </g>
</svg>
