<svg xmlns="http://www.w3.org/2000/svg" xmlns:xlink="http://www.w3.org/1999/xlink" width="108" height="108" viewBox="0 0 108 108">
  <defs>
    <clipPath id="clip-path">
      <ellipse id="Ellipse_31" data-name="Ellipse 31" cx="46.98" cy="47.25" rx="46.98" ry="47.25" transform="translate(141 121)" fill="#dbe3f5"/>
    </clipPath>
  </defs>
  <g id="img" transform="translate(-134 -114)">
    <ellipse id="Ellipse_29" data-name="Ellipse 29" cx="46.98" cy="47.25" rx="46.98" ry="47.25" transform="translate(141 121)" fill="#dbe3f5"/>
    <g id="Mask_Group" data-name="Mask Group">
      <g id="Ellipse_31-2" data-name="Ellipse 31" clip-path="url(#clip-path)">
        <g id="Group_81" data-name="Group 81">
          <path id="Union" d="M187.356,280.268a3.5,3.5,0,0,1,1.282-4.781l37.355-21.567a3.5,3.5,0,0,1,3.5,6.062l-37.355,21.567a3.5,3.5,0,0,1-4.782-1.281Zm-13.451-3.781a3.5,3.5,0,0,1,1.281-4.781l22.424-12.947a3.5,3.5,0,0,1,3.5,6.062l-22.424,12.946a3.5,3.5,0,0,1-4.781-1.281Zm41.949-1.125a3.5,3.5,0,0,1,1.281-4.782l18.187-10.5a3.5,3.5,0,0,1,3.5,6.061l-18.187,10.5a3.5,3.5,0,0,1-4.781-1.281Zm-55.076-2.844a3.5,3.5,0,0,1,1.282-4.781L195.207,248.6a3.5,3.5,0,0,1,3.5,6.062L165.56,273.8a3.5,3.5,0,0,1-4.781-1.282Zm-11.027-5.18a3.5,3.5,0,0,1,1.281-4.781l6.266-3.617A3.5,3.5,0,0,1,160.8,265l-6.266,3.617a3.5,3.5,0,0,1-4.781-1.282Zm-7.8-7.042a3.5,3.5,0,0,1,1.282-4.781l39.379-22.735a3.5,3.5,0,0,1,3.5,6.062l-39.379,22.736a3.5,3.5,0,0,1-4.782-1.282Zm101.618-.933a3.5,3.5,0,0,1,1.282-4.782l27.61-15.941a3.5,3.5,0,1,1,3.5,6.062l-27.611,15.941a3.5,3.5,0,0,1-4.781-1.281Zm-78.024-1.141a3.5,3.5,0,0,1,1.282-4.781l77.942-45a3.5,3.5,0,0,1,3.5,6.062l-77.943,45a3.5,3.5,0,0,1-4.781-1.281Zm40.311-.179a3.5,3.5,0,0,1,1.281-4.782l30.311-17.5a3.5,3.5,0,0,1,3.5,6.062l-30.311,17.5a3.5,3.5,0,0,1-4.781-1.281Zm-74.56-3.142a3.5,3.5,0,0,1,1.281-4.781l13.856-8a3.5,3.5,0,1,1,3.5,6.062l-13.856,8a3.5,3.5,0,0,1-4.781-1.282Zm102.942-1.7a3.5,3.5,0,0,1,1.282-4.781l31.177-18a3.5,3.5,0,0,1,3.5,6.062l-31.177,18a3.5,3.5,0,0,1-4.782-1.281Zm-30.785-5.32a3.5,3.5,0,0,1,1.282-4.782l5.2-3a3.5,3.5,0,0,1,3.5,6.062l-5.2,3a3.5,3.5,0,0,1-4.782-1.281Zm-77.158-1.642a3.5,3.5,0,0,1,1.282-4.781l45.033-26a3.5,3.5,0,0,1,3.5,6.062l-45.033,26a3.5,3.5,0,0,1-4.782-1.282Zm28.383-4.84a3.5,3.5,0,0,1,1.281-4.781l45.033-26a3.5,3.5,0,0,1,3.5,6.062l-45.033,26a3.5,3.5,0,0,1-4.781-1.282Zm63.5-2.019a3.5,3.5,0,0,1,1.282-4.781l25.115-14.5a3.5,3.5,0,0,1,3.5,6.062l-25.115,14.5a3.5,3.5,0,0,1-4.782-1.282Zm-96.88-1.8a3.5,3.5,0,0,1,1.281-4.782l45.033-26a3.5,3.5,0,1,1,3.5,6.062l-45.033,26a3.5,3.5,0,0,1-4.781-1.281Zm124.4-2.539a3.5,3.5,0,0,1,1.282-4.781l35.213-20.331a3.5,3.5,0,0,1,3.5,6.062l-35.213,20.33a3.5,3.5,0,0,1-4.782-1.281Zm-54.837-2.981a3.5,3.5,0,0,1,1.282-4.781l18.186-10.5a3.5,3.5,0,0,1,3.5,6.062l-18.186,10.5a3.5,3.5,0,0,1-4.782-1.282ZM274.94,229.7a3.5,3.5,0,0,1,1.282-4.781l3.848-2.223a3.5,3.5,0,1,1,3.5,6.062l-3.849,2.222a3.5,3.5,0,0,1-4.781-1.281Zm-158.646-.782a3.5,3.5,0,0,1,1.282-4.781l14.722-8.5a3.5,3.5,0,0,1,3.5,6.062l-14.722,8.5a3.5,3.5,0,0,1-4.782-1.281Zm-5-8.66a3.5,3.5,0,0,1,1.281-4.782l45.033-26a3.5,3.5,0,1,1,3.5,6.062l-45.033,26a3.5,3.5,0,0,1-4.781-1.281Zm141.521-.878A3.5,3.5,0,0,1,254.1,214.6l30.247-17.464a3.5,3.5,0,0,1,3.5,6.062L257.6,220.662a3.5,3.5,0,0,1-4.781-1.281Zm-34.249-3.321a3.5,3.5,0,0,1,1.282-4.781l64.9-37.472a3.5,3.5,0,0,1,3.5,6.062l-64.9,37.471a3.5,3.5,0,0,1-4.782-1.282Zm-78.024-1.141a3.5,3.5,0,0,1,1.282-4.781l77.942-45a3.5,3.5,0,1,1,3.5,6.062l-77.942,45a3.5,3.5,0,0,1-4.782-1.282Zm40.311-.179a3.5,3.5,0,0,1,1.282-4.781l30.31-17.5a3.5,3.5,0,1,1,3.5,6.062l-30.311,17.5a3.5,3.5,0,0,1-4.781-1.282Zm-74.56-3.141a3.5,3.5,0,0,1,1.282-4.781l13.856-8a3.5,3.5,0,0,1,3.5,6.062l-13.856,8a3.5,3.5,0,0,1-4.782-1.281Zm102.943-1.7a3.5,3.5,0,0,1,1.281-4.781l31.177-18a3.5,3.5,0,0,1,3.5,6.062l-31.177,18a3.5,3.5,0,0,1-4.781-1.282Zm43.774-2.179a3.5,3.5,0,0,1,1.282-4.781l31.964-18.454a3.5,3.5,0,1,1,3.5,6.062L257.793,209a3.5,3.5,0,0,1-4.782-1.282Zm-77.157-1.641a3.5,3.5,0,0,1,1.281-4.782l47.632-27.5a3.5,3.5,0,0,1,3.5,6.062l-47.632,27.5a3.5,3.5,0,0,1-4.781-1.281Zm-69.312-6.171a3.5,3.5,0,0,1,1.281-4.781l39.785-22.971a3.5,3.5,0,0,1,3.5,6.062l-39.785,22.97a3.5,3.5,0,0,1-4.781-1.281Zm23.134-1.81a3.5,3.5,0,0,1,1.281-4.781l45.033-26a3.5,3.5,0,1,1,3.5,6.062l-45.033,26a3.5,3.5,0,0,1-4.781-1.281Zm91.014-6.358a3.5,3.5,0,0,1,1.281-4.782l59.755-34.5a3.5,3.5,0,1,1,3.5,6.062l-59.755,34.5a3.5,3.5,0,0,1-4.781-1.281Zm-54.838-2.981a3.5,3.5,0,0,1,1.282-4.782l18.186-10.5a3.5,3.5,0,1,1,3.5,6.061l-18.186,10.5a3.5,3.5,0,0,1-4.782-1.281Zm84.086-2.36a3.5,3.5,0,0,1,1.282-4.781l32.908-19a3.5,3.5,0,1,1,3.5,6.062l-32.908,19a3.5,3.5,0,0,1-4.782-1.282Zm-138.923-.621A3.5,3.5,0,0,1,112.3,181l47.632-27.5a3.5,3.5,0,1,1,3.5,6.062L115.8,187.06a3.5,3.5,0,0,1-4.782-1.281Zm-6.115-8.016a3.5,3.5,0,0,1,1.282-4.781l1.115-.644a3.5,3.5,0,1,1,3.5,6.062l-1.115.643a3.5,3.5,0,0,1-4.782-1.281Zm128.111-4.683a3.5,3.5,0,0,1,1.282-4.781l5.2-3a3.5,3.5,0,0,1,3.5,6.062l-5.2,3a3.5,3.5,0,0,1-4.781-1.281Zm-39.444-.32a3.5,3.5,0,0,1,1.281-4.782L266.4,126.667a3.5,3.5,0,0,1,3.5,6.062L198.348,174.04a3.5,3.5,0,0,1-4.781-1.281Zm-78.024-1.141a3.5,3.5,0,0,1,1.281-4.781l77.943-45a3.5,3.5,0,1,1,3.5,6.062l-77.942,45a3.5,3.5,0,0,1-4.781-1.281Zm40.31-.179a3.5,3.5,0,0,1,1.282-4.782l30.311-17.5a3.5,3.5,0,1,1,3.5,6.062l-30.31,17.5a3.5,3.5,0,0,1-4.782-1.281Zm28.383-4.84a3.5,3.5,0,0,1,1.281-4.781l31.177-18a3.5,3.5,0,1,1,3.5,6.061l-31.177,18a3.5,3.5,0,0,1-4.781-1.281Zm63.5-2.019a3.5,3.5,0,0,1,1.282-4.782l25.114-14.5a3.5,3.5,0,0,1,3.5,6.062l-25.115,14.5a3.5,3.5,0,0,1-4.782-1.281Zm-19.722-.161a3.5,3.5,0,0,1,1.281-4.781l45.033-26a3.5,3.5,0,0,1,3.5,6.062l-45.033,26a3.5,3.5,0,0,1-4.781-1.282ZM109.1,163.791a3.5,3.5,0,0,1,1.282-4.782l22.226-12.832a3.5,3.5,0,1,1,3.5,6.061l-22.227,12.833a3.5,3.5,0,0,1-4.781-1.281Zm-4.424-8.994a3.5,3.5,0,0,1,1.281-4.781l45.033-26a3.5,3.5,0,1,1,3.5,6.062l-45.033,26a3.5,3.5,0,0,1-4.781-1.282Zm63.5-2.019A3.5,3.5,0,0,1,169.456,148l25.115-14.5a3.5,3.5,0,1,1,3.5,6.061l-25.115,14.5a3.5,3.5,0,0,1-4.781-1.281Zm27.517-4.34a3.5,3.5,0,0,1,1.281-4.781l51.579-29.779a3.5,3.5,0,0,1,3.5,6.062l-51.579,29.778a3.5,3.5,0,0,1-4.781-1.281Zm-54.837-2.981a3.5,3.5,0,0,1,1.281-4.781l18.186-10.5a3.5,3.5,0,1,1,3.5,6.062l-18.186,10.5a3.5,3.5,0,0,1-4.781-1.282Zm84.086-2.359a3.5,3.5,0,0,1,1.281-4.781l31.785-18.352a3.5,3.5,0,0,1,3.5,6.062L229.721,144.38a3.5,3.5,0,0,1-4.781-1.281Zm-22.125-10.32A3.5,3.5,0,0,1,204.1,128l35.924-20.741a3.5,3.5,0,0,1,3.5,6.062L207.6,134.06a3.5,3.5,0,0,1-4.781-1.281Zm-34.249-3.321a3.5,3.5,0,0,1,1.281-4.781l46.71-26.968a3.5,3.5,0,1,1,3.5,6.062l-46.71,26.968a3.5,3.5,0,0,1-4.781-1.281Zm-37.713-1.32a3.5,3.5,0,0,1,1.281-4.781l30.311-17.5a3.5,3.5,0,0,1,3.5,6.062l-30.311,17.5a3.5,3.5,0,0,1-4.781-1.281Zm28.382-4.84a3.5,3.5,0,0,1,1.281-4.781l31.178-18a3.5,3.5,0,0,1,3.5,6.062l-31.177,18a3.5,3.5,0,0,1-4.781-1.282Zm43.775-2.179a3.5,3.5,0,0,1,1.281-4.781l25.083-14.482a3.5,3.5,0,0,1,3.5,6.062L207.793,122.4a3.5,3.5,0,0,1-4.781-1.282Zm-32.321-15.981a3.5,3.5,0,0,1,1.282-4.781l7.767-4.485a3.5,3.5,0,1,1,3.5,6.062l-7.768,4.485a3.5,3.5,0,0,1-4.781-1.282ZM199.94,99.8a3.5,3.5,0,0,1,1.281-4.781l4.448-2.568a3.5,3.5,0,0,1,3.5,6.062l-4.448,2.568A3.5,3.5,0,0,1,199.94,99.8Z" fill="#fff"/>
        </g>
      </g>
    </g>
    <g id="Ellipse_30" data-name="Ellipse 30" transform="translate(134 114)" fill="none" stroke="#dbe3f5" stroke-width="4">
      <circle cx="54" cy="54" r="54" stroke="none"/>
      <circle cx="54" cy="54" r="52" fill="none"/>
    </g>
    <g id="akar-icons:check-in" transform="translate(163 143)">
      <g id="Group">
        <path id="Vector" d="M12.5,0A12.5,12.5,0,0,0,0,12.5a10.063,10.063,0,0,0,2.344,7.031L12.5,31.25,22.656,19.531A10.063,10.063,0,0,0,25,12.5,12.5,12.5,0,0,0,12.5,0Z" transform="translate(12.5 4.167)" fill="none" stroke="#111" stroke-linecap="round" stroke-linejoin="round" stroke-width="3"/>
        <path id="Vector-2" data-name="Vector" d="M6.25,0C2.394,1.515,0,3.621,0,5.952c0,4.6,9.327,8.333,20.833,8.333s20.833-3.729,20.833-8.333c0-2.331-2.394-4.438-6.25-5.952" transform="translate(4.167 31.548)" fill="none" stroke="#111" stroke-linecap="round" stroke-linejoin="round" stroke-width="3"/>
        <path id="Vector-3" data-name="Vector" d="M4.167,2.083A2.083,2.083,0,1,1,2.083,0,2.083,2.083,0,0,1,4.167,2.083Z" transform="translate(22.917 14.583)" fill="none" stroke="#111" stroke-linecap="round" stroke-linejoin="round" stroke-width="3"/>
      </g>
    </g>
  </g>
</svg>
