<svg xmlns="http://www.w3.org/2000/svg" xmlns:xlink="http://www.w3.org/1999/xlink" width="200" height="200" viewBox="0 0 200 200">
  <defs>
    <clipPath id="clip-path">
      <ellipse id="Ellipse_31" data-name="Ellipse 31" cx="87" cy="87.5" rx="87" ry="87.5" transform="translate(101 127)" fill="#dbe3f5"/>
    </clipPath>
  </defs>
  <g id="img" transform="translate(-88 -114)">
    <ellipse id="Ellipse_29" data-name="Ellipse 29" cx="87" cy="87.5" rx="87" ry="87.5" transform="translate(101 127)" fill="#dbe3f5"/>
    <g id="Mask_Group" data-name="Mask Group">
      <g id="Ellipse_31-2" data-name="Ellipse 31" clip-path="url(#clip-path)">
        <g id="Group_81" data-name="Group 81">
          <path id="Union" d="M177.356,306.268a3.5,3.5,0,0,1,1.281-4.781l37.355-21.567a3.5,3.5,0,0,1,3.5,6.061l-37.355,21.567a3.5,3.5,0,0,1-4.781-1.281Zm-13.451-3.781a3.5,3.5,0,0,1,1.281-4.782l22.423-12.946a3.5,3.5,0,1,1,3.5,6.062l-22.423,12.946a3.5,3.5,0,0,1-4.781-1.281Zm41.949-1.126a3.5,3.5,0,0,1,1.281-4.781l18.187-10.5a3.5,3.5,0,0,1,3.5,6.062l-18.187,10.5a3.5,3.5,0,0,1-4.781-1.282Zm-55.076-2.843a3.5,3.5,0,0,1,1.282-4.781L185.207,274.6a3.5,3.5,0,0,1,3.5,6.062L155.56,299.8a3.5,3.5,0,0,1-4.781-1.282Zm-11.027-5.18a3.5,3.5,0,0,1,1.281-4.781l6.266-3.617A3.5,3.5,0,0,1,150.8,291l-6.266,3.617a3.5,3.5,0,0,1-4.781-1.282Zm-7.8-7.043a3.5,3.5,0,0,1,1.282-4.781l39.379-22.736a3.5,3.5,0,0,1,3.5,6.062l-39.38,22.736a3.5,3.5,0,0,1-4.781-1.282Zm101.618-.934a3.5,3.5,0,0,1,1.281-4.781l27.611-15.941a3.5,3.5,0,1,1,3.5,6.061l-27.611,15.942a3.5,3.5,0,0,1-4.781-1.282Zm-78.024-1.14a3.5,3.5,0,0,1,1.281-4.782l77.943-45a3.5,3.5,0,0,1,3.5,6.062l-77.943,45a3.5,3.5,0,0,1-4.781-1.281Zm40.311-.18a3.5,3.5,0,0,1,1.281-4.781l30.311-17.5a3.5,3.5,0,0,1,3.5,6.062l-30.311,17.5a3.5,3.5,0,0,1-4.781-1.282Zm-74.56-3.141a3.5,3.5,0,0,1,1.281-4.781l13.856-8a3.5,3.5,0,0,1,3.5,6.062l-13.856,8a3.5,3.5,0,0,1-4.781-1.282Zm102.942-1.7a3.5,3.5,0,0,1,1.282-4.781l31.177-18a3.5,3.5,0,1,1,3.5,6.061l-31.177,18a3.5,3.5,0,0,1-4.781-1.281Zm-30.785-5.321a3.5,3.5,0,0,1,1.281-4.781l5.2-3a3.5,3.5,0,1,1,3.5,6.061l-5.2,3a3.5,3.5,0,0,1-4.781-1.282Zm-77.158-1.641a3.5,3.5,0,0,1,1.282-4.781l45.033-26a3.5,3.5,0,1,1,3.5,6.061l-45.033,26a3.5,3.5,0,0,1-4.781-1.281Zm28.383-4.84a3.5,3.5,0,0,1,1.281-4.781l45.033-26a3.5,3.5,0,0,1,3.5,6.062l-45.033,26a3.5,3.5,0,0,1-4.781-1.282Zm63.5-2.019a3.5,3.5,0,0,1,1.282-4.782l25.115-14.5a3.5,3.5,0,0,1,3.5,6.062l-25.115,14.5a3.5,3.5,0,0,1-4.781-1.281Zm-96.88-1.8a3.5,3.5,0,0,1,1.281-4.781l45.033-26a3.5,3.5,0,0,1,3.5,6.062l-45.033,26a3.5,3.5,0,0,1-4.781-1.282Zm124.4-2.538a3.5,3.5,0,0,1,1.282-4.781l35.213-20.331a3.5,3.5,0,0,1,3.5,6.062l-35.213,20.33a3.5,3.5,0,0,1-4.782-1.281Zm-54.837-2.981a3.5,3.5,0,0,1,1.282-4.781l18.186-10.5a3.5,3.5,0,0,1,3.5,6.062l-18.186,10.5a3.5,3.5,0,0,1-4.782-1.281ZM264.94,255.7a3.5,3.5,0,0,1,1.281-4.782l3.849-2.222a3.5,3.5,0,0,1,3.5,6.062l-3.849,2.222a3.5,3.5,0,0,1-4.781-1.281Zm-158.646-.782a3.5,3.5,0,0,1,1.281-4.781l14.723-8.5a3.5,3.5,0,0,1,3.5,6.062l-14.723,8.5a3.5,3.5,0,0,1-4.781-1.281Zm-5-8.661a3.5,3.5,0,0,1,1.282-4.781l45.033-26a3.5,3.5,0,0,1,3.5,6.062l-45.033,26a3.5,3.5,0,0,1-4.782-1.282Zm141.521-.878A3.5,3.5,0,0,1,244.1,240.6l30.247-17.463a3.5,3.5,0,1,1,3.5,6.061L247.6,246.662a3.5,3.5,0,0,1-4.782-1.281Zm-34.249-3.321a3.5,3.5,0,0,1,1.282-4.781l64.9-37.471a3.5,3.5,0,1,1,3.5,6.062l-64.9,37.471a3.5,3.5,0,0,1-4.781-1.281Zm-78.024-1.141a3.5,3.5,0,0,1,1.282-4.781l77.942-45a3.5,3.5,0,0,1,3.5,6.062l-77.943,45a3.5,3.5,0,0,1-4.781-1.282Zm40.311-.179a3.5,3.5,0,0,1,1.282-4.781l30.31-17.5a3.5,3.5,0,1,1,3.5,6.062l-30.311,17.5a3.5,3.5,0,0,1-4.781-1.281ZM96.295,237.6a3.5,3.5,0,0,1,1.281-4.781l13.857-8a3.5,3.5,0,1,1,3.5,6.061l-13.856,8a3.5,3.5,0,0,1-4.781-1.281Zm102.942-1.7a3.5,3.5,0,0,1,1.282-4.781l31.177-18a3.5,3.5,0,0,1,3.5,6.062l-31.177,18a3.5,3.5,0,0,1-4.782-1.282Zm43.775-2.179a3.5,3.5,0,0,1,1.282-4.781l31.964-18.454a3.5,3.5,0,0,1,3.5,6.062L247.793,235a3.5,3.5,0,0,1-4.781-1.281Zm-77.157-1.642a3.5,3.5,0,0,1,1.281-4.781l47.632-27.5a3.5,3.5,0,0,1,3.5,6.062l-47.632,27.5a3.5,3.5,0,0,1-4.781-1.282Zm-69.312-6.17a3.5,3.5,0,0,1,1.281-4.782l39.785-22.97a3.5,3.5,0,0,1,3.5,6.062l-39.785,22.97a3.5,3.5,0,0,1-4.781-1.281Zm23.135-1.81a3.5,3.5,0,0,1,1.281-4.781l45.033-26a3.5,3.5,0,1,1,3.5,6.061l-45.033,26a3.5,3.5,0,0,1-4.781-1.281Zm91.014-6.359a3.5,3.5,0,0,1,1.281-4.781l59.755-34.5a3.5,3.5,0,1,1,3.5,6.062l-59.756,34.5a3.5,3.5,0,0,1-4.781-1.282Zm-54.837-2.981a3.5,3.5,0,0,1,1.281-4.781l18.186-10.5a3.5,3.5,0,1,1,3.5,6.062l-18.186,10.5a3.5,3.5,0,0,1-4.781-1.282ZM239.94,212.4a3.5,3.5,0,0,1,1.281-4.781l32.909-19a3.5,3.5,0,0,1,3.5,6.062l-32.909,19a3.5,3.5,0,0,1-4.781-1.282Zm-138.923-.622A3.5,3.5,0,0,1,102.3,207l47.632-27.5a3.5,3.5,0,1,1,3.5,6.062L105.8,213.06a3.5,3.5,0,0,1-4.782-1.282ZM94.9,203.763a3.5,3.5,0,0,1,1.282-4.782l1.115-.643a3.5,3.5,0,0,1,3.5,6.062l-1.115.644a3.5,3.5,0,0,1-4.782-1.281Zm128.11-4.683a3.5,3.5,0,0,1,1.281-4.782l5.2-3a3.5,3.5,0,0,1,3.5,6.062l-5.2,3a3.5,3.5,0,0,1-4.781-1.281Zm-39.445-.321a3.5,3.5,0,0,1,1.282-4.781L256.4,152.667a3.5,3.5,0,1,1,3.5,6.062L188.348,200.04a3.5,3.5,0,0,1-4.782-1.282Zm-78.024-1.14a3.5,3.5,0,0,1,1.282-4.782l77.942-45a3.5,3.5,0,1,1,3.5,6.062l-77.942,45a3.5,3.5,0,0,1-4.782-1.281Zm40.311-.18a3.5,3.5,0,0,1,1.282-4.781l30.311-17.5a3.5,3.5,0,1,1,3.5,6.061l-30.31,17.5a3.5,3.5,0,0,1-4.782-1.282Zm28.383-4.839a3.5,3.5,0,0,1,1.281-4.781l31.177-18a3.5,3.5,0,0,1,3.5,6.062l-31.177,18a3.5,3.5,0,0,1-4.781-1.281Zm63.5-2.02a3.5,3.5,0,0,1,1.282-4.781l25.115-14.5a3.5,3.5,0,0,1,3.5,6.062l-25.115,14.5a3.5,3.5,0,0,1-4.782-1.282Zm-19.723-.16a3.5,3.5,0,0,1,1.282-4.781l45.033-26a3.5,3.5,0,0,1,3.5,6.062l-45.033,26a3.5,3.5,0,0,1-4.782-1.282ZM99.1,189.79a3.5,3.5,0,0,1,1.282-4.781l22.226-12.833a3.5,3.5,0,1,1,3.5,6.062l-22.227,12.833A3.5,3.5,0,0,1,99.1,189.79ZM94.677,180.8a3.5,3.5,0,0,1,1.281-4.781l45.034-26a3.5,3.5,0,1,1,3.5,6.062l-45.033,26a3.5,3.5,0,0,1-4.781-1.282Zm63.5-2.019A3.5,3.5,0,0,1,159.456,174l25.115-14.5a3.5,3.5,0,1,1,3.5,6.062l-25.114,14.5a3.5,3.5,0,0,1-4.781-1.281Zm27.517-4.34a3.5,3.5,0,0,1,1.281-4.782l51.579-29.778a3.5,3.5,0,0,1,3.5,6.062L190.472,175.72a3.5,3.5,0,0,1-4.781-1.281Zm-54.837-2.981a3.5,3.5,0,0,1,1.281-4.781l18.186-10.5a3.5,3.5,0,1,1,3.5,6.062l-18.186,10.5a3.5,3.5,0,0,1-4.781-1.281ZM214.94,169.1a3.5,3.5,0,0,1,1.282-4.782l31.785-18.351a3.5,3.5,0,1,1,3.5,6.062L219.722,170.38a3.5,3.5,0,0,1-4.782-1.281Zm-22.124-10.32A3.5,3.5,0,0,1,194.1,154l35.923-20.74a3.5,3.5,0,1,1,3.5,6.062L197.6,160.06a3.5,3.5,0,0,1-4.781-1.281Zm-34.249-3.321a3.5,3.5,0,0,1,1.281-4.781l46.71-26.969a3.5,3.5,0,1,1,3.5,6.062l-46.71,26.968a3.5,3.5,0,0,1-4.781-1.281Zm-37.713-1.32a3.5,3.5,0,0,1,1.281-4.781l30.311-17.5a3.5,3.5,0,0,1,3.5,6.062l-30.311,17.5a3.5,3.5,0,0,1-4.781-1.281Zm28.382-4.84a3.5,3.5,0,0,1,1.281-4.781l31.177-18a3.5,3.5,0,1,1,3.5,6.062l-31.177,18a3.5,3.5,0,0,1-4.781-1.282Zm43.775-2.179a3.5,3.5,0,0,1,1.281-4.781l25.082-14.482a3.5,3.5,0,1,1,3.5,6.062L197.793,148.4a3.5,3.5,0,0,1-4.781-1.281Zm-32.321-15.981a3.5,3.5,0,0,1,1.282-4.781l7.767-4.485a3.5,3.5,0,1,1,3.5,6.062l-7.768,4.485a3.5,3.5,0,0,1-4.781-1.282Zm29.248-5.34a3.5,3.5,0,0,1,1.282-4.781l4.448-2.568a3.5,3.5,0,1,1,3.5,6.062l-4.447,2.568a3.5,3.5,0,0,1-4.782-1.282Z" fill="#fff"/>
        </g>
      </g>
    </g>
    <g id="fluent:key-20-regular" transform="translate(143 169)">
      <g id="Group">
        <path id="Vector" d="M58.5,18a4.5,4.5,0,1,1-1.318-3.182A4.5,4.5,0,0,1,58.5,18ZM47.25,0A24.532,24.532,0,0,0,22.5,24.75a25.162,25.162,0,0,0,.549,5.288,3.108,3.108,0,0,1-.639,2.871L1.98,53.338A6.75,6.75,0,0,0,0,58.118V65.25A6.75,6.75,0,0,0,6.75,72h9a6.75,6.75,0,0,0,6.75-6.75V63H27a4.5,4.5,0,0,0,4.5-4.5V54H36a4.5,4.5,0,0,0,4.5-4.5v-.81a25.843,25.843,0,0,0,6.75.81A24.532,24.532,0,0,0,72,24.75,24.532,24.532,0,0,0,47.25,0ZM27,24.75a20.25,20.25,0,0,1,40.5,0A20.031,20.031,0,0,1,47.25,45a17.906,17.906,0,0,1-7.992-1.562A2.25,2.25,0,0,0,36,45.45V49.5H31.5A4.5,4.5,0,0,0,27,54v4.5H22.5A4.5,4.5,0,0,0,18,63v2.25a2.25,2.25,0,0,1-2.25,2.25h-9A2.25,2.25,0,0,1,4.5,65.25V58.113a2.25,2.25,0,0,1,.657-1.589L25.591,36.09a7.593,7.593,0,0,0,1.854-7A20.786,20.786,0,0,1,27,24.75Z" transform="translate(9 9)" fill="#111"/>
      </g>
    </g>
    <g id="Ellipse_30" data-name="Ellipse 30" transform="translate(88 114)" fill="none" stroke="#dbe3f5" stroke-width="4">
      <circle cx="100" cy="100" r="100" stroke="none"/>
      <circle cx="100" cy="100" r="98" fill="none"/>
    </g>
  </g>
</svg>
